<svg width="111" height="17" viewBox="0 0 111 17" fill="none" xmlns="http://www.w3.org/2000/svg">
<path fill-rule="evenodd" clip-rule="evenodd" d="M0 16.4627H4.14815V13.1194H7.05185C10.2592 13.1194 12.8593 10.5193 12.8593 7.31199V6.48258C12.8593 3.45463 10.4046 1 7.37667 1H0V16.4627ZM4.14795 9.3582V4.34328H7.03308C8.41791 4.34328 9.54054 5.46591 9.54054 6.85074C9.54054 8.23557 8.41791 9.3582 7.03308 9.3582H4.14795Z" fill="#020202"/>
<path d="M46.0446 1H41.8965V16.4627H53.0965V12.7015H46.0446V1Z" fill="#020202"/>
<path d="M63.8815 1H59.7334V16.4627H70.9334V12.7015H63.8815V1Z" fill="#020202"/>
<path d="M77.1553 16.4627H89.1849V12.7015H81.3034V10.6119H87.9405V7.26866H81.3034V4.34328H89.1849V1H77.1553V16.4627Z" fill="#020202"/>
<path d="M99.9706 16.4627H96.2373V1H99.9706L107.022 9.77612V1H110.341V16.4627H107.022L99.9706 7.68657V16.4627Z" fill="#020202"/>
<circle cx="27.5" cy="8.5" r="6.5" stroke="#020202" stroke-width="4"/>
</svg>
